<svg
 xmlns="http://www.w3.org/2000/svg"
 xmlns:xlink="http://www.w3.org/1999/xlink"
 width="32px" height="60px">
<path fill-rule="evenodd"  fill="#ffffff"
 d="M-0.000,29.999 C-0.000,29.999 0.640,30.612 0.640,30.612 C0.640,30.612 0.640,30.612 0.640,30.612 C0.640,30.612 31.370,60.006 31.370,60.006 C31.370,60.006 32.010,59.394 32.010,59.394 C32.010,59.394 1.280,29.999 1.280,29.999 C1.280,29.999 32.010,0.605 32.010,0.605 C32.010,0.605 31.370,-0.007 31.370,-0.007 C31.370,-0.007 0.640,29.387 0.640,29.387 C0.640,29.387 0.640,29.387 0.640,29.387 C0.640,29.387 -0.000,29.999 -0.000,29.999 Z"/>
</svg>