<svg
 xmlns="http://www.w3.org/2000/svg"
 xmlns:xlink="http://www.w3.org/1999/xlink"
 width="32px" height="60px">
<path fill-rule="evenodd"  fill="#ffffff"
 d="M32.000,29.999 C32.000,29.999 31.360,30.612 31.360,30.612 C31.360,30.612 31.360,30.612 31.360,30.612 C31.360,30.612 0.630,60.006 0.630,60.006 C0.630,60.006 -0.010,59.394 -0.010,59.394 C-0.010,59.394 30.720,29.999 30.720,29.999 C30.720,29.999 -0.010,0.605 -0.010,0.605 C-0.010,0.605 0.630,-0.007 0.630,-0.007 C0.630,-0.007 31.360,29.387 31.360,29.387 C31.360,29.387 31.360,29.387 31.360,29.387 C31.360,29.387 32.000,29.999 32.000,29.999 Z"/>
</svg>