<?xml version="1.0" encoding="utf-8"?>
<!-- Generator: Adobe Illustrator 16.0.0, SVG Export Plug-In . SVG Version: 6.00 Build 0)  -->
<!DOCTYPE svg PUBLIC "-//W3C//DTD SVG 1.1//EN" "http://www.w3.org/Graphics/SVG/1.1/DTD/svg11.dtd">
<svg version="1.1" id="Layer_1" xmlns="http://www.w3.org/2000/svg" xmlns:xlink="http://www.w3.org/1999/xlink" x="0px" y="0px"
	 width="18px" height="18px" viewBox="0 0 18 18" enable-background="new 0 0 18 18" xml:space="preserve">
<path fill="#000000" d="M15.984,4.668c-0.514,0.228-1.066,0.382-1.646,0.451c0.591-0.354,1.045-0.916,1.26-1.585
	c-0.554,0.329-1.167,0.567-1.819,0.695c-0.523-0.557-1.268-0.905-2.093-0.905c-1.582,0-2.865,1.283-2.865,2.866
	c0,0.225,0.025,0.443,0.074,0.653c-2.382-0.119-4.493-1.26-5.907-2.994C2.742,4.272,2.601,4.764,2.601,5.29
	c0,0.994,0.506,1.872,1.275,2.385C3.406,7.66,2.963,7.531,2.577,7.316c0,0.012,0,0.024,0,0.036c0,1.389,0.987,2.547,2.298,2.81
	c-0.24,0.065-0.493,0.101-0.755,0.101c-0.185,0-0.364-0.018-0.539-0.051c0.364,1.138,1.423,1.967,2.677,1.989
	c-0.98,0.77-2.217,1.228-3.559,1.228c-0.231,0-0.459-0.014-0.684-0.04c1.268,0.812,2.774,1.287,4.393,1.287
	c5.271,0,8.153-4.366,8.153-8.154c0-0.124-0.003-0.248-0.008-0.37C15.114,5.748,15.601,5.243,15.984,4.668L15.984,4.668z"/>
</svg>
